<?xml version="1.0" encoding="UTF-8"?>
<svg width="24px" height="24px" viewBox="0 0 24 24" version="1.1" xmlns="http://www.w3.org/2000/svg" xmlns:xlink="http://www.w3.org/1999/xlink">
    <!-- Generator: sketchtool 51 (57462) - http://www.bohemiancoding.com/sketch -->
    <title>151B5BCB-0F4F-4846-9823-BCE0C0B30D14</title>
    <desc>Created with sketchtool.</desc>
    <defs></defs>
    <g id="Symbols" stroke="none" stroke-width="1" fill="none" fill-rule="evenodd">
        <g id="icons-/-active-/-key" fill="#FF5C00" fill-rule="nonzero">
            <polygon id="Shape" points="14.25 13.375 10.125 10 3 17.125 3 20.875 6.75 20.875 6.75 18.625 9 18.625 9 16.375 11.25 16.375"></polygon>
            <path d="M14.375,3 C10.8545,3 8,5.8545 8,9.375 C8,12.8955 10.8545,15.75 14.375,15.75 C17.8955,15.75 20.75,12.8955 20.75,9.375 C20.75,5.8545 17.8955,3 14.375,3 Z M15.875,9.75 C14.83925,9.75 14,8.91075 14,7.875 C14,6.83925 14.83925,6 15.875,6 C16.91075,6 17.75,6.83925 17.75,7.875 C17.75,8.91075 16.91075,9.75 15.875,9.75 Z" id="Shape"></path>
        </g>
    </g>
</svg>