<svg width="26" height="23" viewBox="0 0 26 23" fill="none" xmlns="http://www.w3.org/2000/svg">
<path d="M24 23C25.1046 23 26 22.1046 26 21C26 19.8954 25.1046 19 24 19C22.8954 19 22 19.8954 22 21C22 22.1046 22.8954 23 24 23Z" fill="#FF1B37"/>
<path d="M15 2C15 3.105 14.105 3 13 3C11.895 3 11 3.105 11 2C11 0.895 11.895 0 13 0C14.105 0 15 0.895 15 2Z" fill="#FF1B37"/>
<path d="M2 23C3.10457 23 4 22.1046 4 21C4 19.8954 3.10457 19 2 19C0.89543 19 0 19.8954 0 21C0 22.1046 0.89543 23 2 23Z" fill="#FF1B37"/>
<path fill-rule="evenodd" clip-rule="evenodd" d="M14.8358 1.21L12.9998 1L11.1638 1.21L0.299805 19.948L2.1438 23H12.9998H23.8558L25.6998 19.948L14.8358 1.21ZM14.2118 8.36L14.0118 14.833H11.9878L11.7878 8.36H14.2118ZM11.6798 18.007C11.6798 18.748 12.1748 19.189 13.0028 19.189C13.8248 19.189 14.3188 18.748 14.3188 18.007C14.3188 17.252 13.8248 16.811 13.0028 16.811C12.1738 16.811 11.6798 17.252 11.6798 18.007Z" fill="#FF5C00"/>
</svg>
