<svg width="24" height="24" viewBox="0 0 24 24" fill="none" xmlns="http://www.w3.org/2000/svg">
<path d="M18.3392 8.87102C18.2654 8.91722 16.5086 9.89222 16.5086 12.054C16.5914 14.5194 18.7256 15.384 18.7622 15.384C18.7256 15.4302 18.44 16.5618 17.594 17.748C16.9226 18.7698 16.1774 19.8 15.0458 19.8C13.9694 19.8 13.583 19.119 12.341 19.119C11.0072 19.119 10.6298 19.8 9.60865 19.8C8.47705 19.8 7.67665 18.7146 6.96865 17.7024C6.04885 16.3776 5.26705 14.2986 5.23945 12.3024C5.22085 11.2446 5.42365 10.2048 5.93845 9.32162C6.66505 8.08862 7.96225 7.25162 9.37885 7.22402C10.4642 7.18742 11.4302 7.96922 12.0926 7.96922C12.7274 7.96922 13.9142 7.22402 15.257 7.22402C15.8366 7.22462 17.3822 7.39922 18.3392 8.87102ZM12.0008 7.01282C11.8076 6.04682 12.341 5.08082 12.8378 4.46462C13.4726 3.71942 14.4752 3.21362 15.3398 3.21362C15.395 4.17962 15.0452 5.12702 14.42 5.81702C13.859 6.56222 12.893 7.12322 12.0008 7.01282Z" fill="black"/>
</svg>
