<svg width="16" height="16" viewBox="0 0 16 16" fill="none" xmlns="http://www.w3.org/2000/svg">
<g clip-path="url(#clip0)">
<path d="M12.5716 10.4665H1.14287C1.0685 10.4665 1 10.405 1 10.3178V5.14869C1 5.06153 1.0685 5 1.14287 5H12.5716C12.646 5 12.7145 5.06153 12.7145 5.14869V10.3178C12.7145 10.405 12.646 10.4665 12.5716 10.4665Z" fill="#111111" stroke="#111111" stroke-width="2" stroke-linecap="round"/>
<path d="M15.4286 9.16916H14.8571V6.29742H15.4286C15.744 6.29742 16 6.55473 16 6.87177V8.59481C16 8.91185 15.744 9.16916 15.4286 9.16916Z" fill="#111111"/>
<path d="M15.4286 9.16916H14.8571V6.29742H15.4286C15.744 6.29742 16 6.55473 16 6.87177V8.59481C16 8.91185 15.744 9.16916 15.4286 9.16916Z" stroke="#111111"/>
<rect x="1.83331" y="5.83331" width="7" height="4.33333" fill="#111111" stroke="#111111"/>
</g>
<defs>
<clipPath id="clip0">
<rect width="16" height="16" fill="white"/>
</clipPath>
</defs>
</svg>
