<svg width="16" height="16" viewBox="0 0 16 16" fill="none" xmlns="http://www.w3.org/2000/svg">
<path fill-rule="evenodd" clip-rule="evenodd" d="M0 8C0 3.582 3.582 0 8 0C12.418 0 16 3.582 16 8C16 12.418 12.418 16 8 16C3.582 16 0 12.418 0 8ZM7.43134 11.5113L12.4713 6.47133C12.732 6.21067 12.732 5.78933 12.4713 5.52867C12.2107 5.268 11.7893 5.268 11.5287 5.52867L6.96001 10.0973L5.12934 8.26667C4.86867 8.006 4.44734 8.006 4.18668 8.26667C3.92601 8.52733 3.92601 8.94867 4.18668 9.20933L6.48868 11.5113C6.61334 11.6367 6.78334 11.7067 6.96001 11.7067C7.13667 11.7067 7.30601 11.6367 7.43134 11.5113Z" fill="#111111"/>
</svg>
