<svg width="40" height="40" viewBox="0 0 40 40" fill="none" xmlns="http://www.w3.org/2000/svg">
<path fill-rule="evenodd" clip-rule="evenodd" d="M20 38.3333C30.1252 38.3333 38.3333 30.1252 38.3333 20C38.3333 9.87478 30.1252 1.66667 20 1.66667C9.87478 1.66667 1.66667 9.87478 1.66667 20C1.66667 30.1252 9.87478 38.3333 20 38.3333ZM20 40C31.0457 40 40 31.0457 40 20C40 8.9543 31.0457 0 20 0C8.9543 0 0 8.9543 0 20C0 31.0457 8.9543 40 20 40Z" fill="#939393"/>
<path fill-rule="evenodd" clip-rule="evenodd" d="M24.4108 25.5893L14.4108 15.5893L15.5893 14.4108L25.5893 24.4108L24.4108 25.5893Z" fill="#939393"/>
<path fill-rule="evenodd" clip-rule="evenodd" d="M25.5893 15.5892L15.5893 25.5892L14.4108 24.4107L24.4108 14.4107L25.5893 15.5892Z" fill="#939393"/>
</svg>
