<svg width="24" height="24" viewBox="0 0 24 24" fill="none" xmlns="http://www.w3.org/2000/svg">
<path d="M14.8264 18.6H9.17439C8.56299 18.6 8.04939 18.1404 7.98159 17.5326L6.90039 7.80005H17.1004L16.0192 17.5326C15.9514 18.1404 15.4378 18.6 14.8264 18.6Z" fill="#DCDCDC"/>
<path d="M17.4 6.5999H6.6C6.2688 6.5999 6 6.3311 6 5.9999C6 5.6687 6.2688 5.3999 6.6 5.3999H17.4C17.7312 5.3999 18 5.6687 18 5.9999C18 6.3311 17.7312 6.5999 17.4 6.5999Z" fill="#DCDCDC"/>
<path d="M13.8002 6.00005H10.2002V5.40005C10.2002 5.06885 10.469 4.80005 10.8002 4.80005H13.2002C13.5314 4.80005 13.8002 5.06885 13.8002 5.40005V6.00005Z" fill="#DCDCDC"/>
</svg>
