<svg width="12" height="8" viewBox="0 0 12 8" fill="none" xmlns="http://www.w3.org/2000/svg">
<path fill-rule="evenodd" clip-rule="evenodd" d="M0 0.666667C0 1.03333 0.3 1.33333 0.666667 1.33333H11.3333C11.7 1.33333 12 1.03333 12 0.666667C12 0.3 11.7 0 11.3333 0H0.666667C0.3 0 0 0.3 0 0.666667ZM5.33331 8H6.66664C7.03331 8 7.33331 7.7 7.33331 7.33333C7.33331 6.96666 7.03331 6.66667 6.66664 6.66667H5.33331C4.96664 6.66667 4.66664 6.96666 4.66664 7.33333C4.66664 7.7 4.96664 8 5.33331 8ZM9.33337 4.66667H2.66671C2.30004 4.66667 2.00004 4.36667 2.00004 4C2.00004 3.63333 2.30004 3.33333 2.66671 3.33333H9.33337C9.70004 3.33333 10 3.63333 10 4C10 4.36667 9.70004 4.66667 9.33337 4.66667Z" fill="#939393"/>
</svg>
