<?xml version="1.0" encoding="UTF-8"?>
<svg width="18px" height="12px" viewBox="0 0 18 12" version="1.1" xmlns="http://www.w3.org/2000/svg" xmlns:xlink="http://www.w3.org/1999/xlink">
    <!-- Generator: sketchtool 51 (57462) - http://www.bohemiancoding.com/sketch -->
    <title>F31D5A6A-BA96-4837-ADDB-498020DBC927</title>
    <desc>Created with sketchtool.</desc>
    <defs></defs>
    <g id="Keychain" stroke="none" stroke-width="1" fill="none" fill-rule="evenodd">
        <g id="Keychain-/-List" transform="translate(-324.000000, -165.000000)">
            <rect fill="#FFFFFF" x="0" y="0" width="1600" height="1000"></rect>
            <g id="Group-2" transform="translate(308.000000, 155.000000)" fill="#D5D5D5" fill-rule="nonzero">
                <g id="Rounded_1_" transform="translate(16.000000, 10.000000)">
                    <path d="M8,12 L10,12 C10.55,12 11,11.55 11,11 C11,10.45 10.55,10 10,10 L8,10 C7.45,10 7,10.45 7,11 C7,11.55 7.45,12 8,12 Z M0,1 C0,1.55 0.45,2 1,2 L17,2 C17.55,2 18,1.55 18,1 C18,0.45 17.55,0 17,0 L1,0 C0.45,0 0,0.45 0,1 Z M4,7 L14,7 C14.55,7 15,6.55 15,6 C15,5.45 14.55,5 14,5 L4,5 C3.45,5 3,5.45 3,6 C3,6.55 3.45,7 4,7 Z" id="Shape"></path>
                </g>
            </g>
        </g>
    </g>
</svg>