<svg width="16" height="16" viewBox="0 0 16 16" fill="none" xmlns="http://www.w3.org/2000/svg">
<path fill-rule="evenodd" clip-rule="evenodd" d="M6.56958 1.2657C6.95199 0.845161 7.43479 0.545166 8.00047 0.545166C8.56614 0.545166 9.04895 0.845161 9.43135 1.2657C9.81363 1.68609 10.1349 2.26651 10.3945 2.94135C10.9149 4.29436 11.2262 6.12966 11.2262 8.13195C11.2262 10.1342 10.9149 11.9695 10.3945 13.3226C10.1349 13.9974 9.81363 14.5778 9.43135 14.9982C9.04895 15.4187 8.56614 15.7187 8.00047 15.7187C7.43479 15.7187 6.95199 15.4187 6.56958 14.9982C6.18731 14.5778 5.866 13.9974 5.60644 13.3226C5.08605 11.9695 4.77478 10.1342 4.77478 8.13195C4.77478 6.12966 5.08605 4.29436 5.60644 2.94135C5.866 2.26651 6.18731 1.68609 6.56958 1.2657ZM6.53979 3.30033C6.07367 4.51223 5.77478 6.22031 5.77478 8.13195C5.77478 10.0436 6.07367 11.7517 6.53979 12.9636C6.77349 13.5712 7.03951 14.0286 7.30943 14.3254C7.57922 14.6221 7.81347 14.7187 8.00047 14.7187C8.18747 14.7187 8.42171 14.6221 8.6915 14.3254C8.96142 14.0286 9.22745 13.5712 9.46114 12.9636C9.92726 11.7517 10.2262 10.0436 10.2262 8.13195C10.2262 6.22031 9.92726 4.51223 9.46114 3.30033C9.22745 2.69271 8.96142 2.2353 8.6915 1.93847C8.42171 1.64178 8.18747 1.54517 8.00047 1.54517C7.81347 1.54517 7.57922 1.64178 7.30943 1.93847C7.03951 2.2353 6.77349 2.69271 6.53979 3.30033Z" fill="#111111"/>
<path fill-rule="evenodd" clip-rule="evenodd" d="M1.3384 5.93817C1.16542 5.39674 1.14703 4.82863 1.42987 4.33875C1.71271 3.84887 2.21391 3.58076 2.76929 3.45986C3.32449 3.33901 3.9878 3.35096 4.70198 3.46361C6.13388 3.68946 7.8789 4.33755 9.61288 5.33869C11.3469 6.33984 12.7806 7.52705 13.6921 8.65422C14.1467 9.21641 14.4887 9.78488 14.6617 10.3261C14.8346 10.8676 14.853 11.4357 14.5702 11.9255C14.2874 12.4154 13.7862 12.6835 13.2308 12.8044C12.6756 12.9253 12.0123 12.9133 11.2981 12.8007C9.86618 12.5748 8.12116 11.9267 6.38718 10.9256C4.6532 9.92446 3.21946 8.73724 2.30795 7.61008C1.85331 7.04788 1.51132 6.47942 1.3384 5.93817ZM3.08551 6.98127C3.90196 7.99088 5.23172 9.10376 6.88719 10.0596C8.54267 11.0154 10.1713 11.6106 11.4539 11.8129C12.0969 11.9143 12.6261 11.9126 13.0181 11.8273C13.4099 11.742 13.6107 11.5875 13.7042 11.4255C13.7977 11.2636 13.8311 11.0124 13.7091 10.6305C13.587 10.2483 13.3239 9.78921 12.9145 9.28302C12.0981 8.27341 10.7683 7.16053 9.11287 6.20471C7.45739 5.24889 5.82874 4.65369 4.54618 4.4514C3.90314 4.34997 3.37401 4.35165 2.98199 4.43698C2.59017 4.52227 2.38938 4.67682 2.29588 4.83876C2.20239 5.0007 2.16893 5.25186 2.29097 5.63384C2.41306 6.016 2.67617 6.47508 3.08551 6.98127Z" fill="#111111"/>
<path fill-rule="evenodd" clip-rule="evenodd" d="M2.30795 8.65378C3.21946 7.52662 4.6532 6.3394 6.38718 5.33826C8.12116 4.33711 9.86618 3.68902 11.2981 3.46317C12.0123 3.35053 12.6756 3.33857 13.2308 3.45942C13.7862 3.58032 14.2874 3.84843 14.5702 4.33831C14.853 4.82819 14.8346 5.3963 14.6617 5.93773C14.4887 6.47898 14.1467 7.04745 13.6921 7.60964C12.7806 8.7368 11.3469 9.92402 9.61288 10.9252C7.8789 11.9263 6.13388 12.5744 4.70198 12.8002C3.98779 12.9129 3.32449 12.9248 2.76929 12.804C2.21391 12.6831 1.71271 12.415 1.42987 11.9251C1.14702 11.4352 1.16542 10.8671 1.3384 10.3257C1.51132 9.78444 1.85331 9.21597 2.30795 8.65378ZM2.29097 10.63C2.16893 11.012 2.20239 11.2632 2.29588 11.4251C2.38938 11.587 2.59017 11.7416 2.98199 11.8269C3.37401 11.9122 3.90313 11.9139 4.54618 11.8125C5.82874 11.6102 7.45739 11.015 9.11287 10.0591C10.7683 9.10333 12.0981 7.99044 12.9145 6.98084C13.3239 6.47465 13.587 6.01556 13.7091 5.6334C13.8311 5.25142 13.7977 5.00026 13.7042 4.83832C13.6107 4.67638 13.4099 4.52183 13.0181 4.43654C12.6261 4.35121 12.0969 4.34954 11.4539 4.45096C10.1713 4.65326 8.54267 5.24846 6.88719 6.20427C5.23172 7.16009 3.90196 8.27297 3.08551 9.28258C2.67617 9.78877 2.41306 10.2479 2.29097 10.63Z" fill="#111111"/>
<path d="M2.00537 11.4027C2.60752 11.4027 3.09565 10.9146 3.09565 10.3124C3.09565 9.7103 2.60752 9.22217 2.00537 9.22217C1.40323 9.22217 0.9151 9.7103 0.9151 10.3124C0.9151 10.9146 1.40323 11.4027 2.00537 11.4027Z" fill="#111111"/>
<path d="M12.906 13.5833C13.5082 13.5833 13.9963 13.0952 13.9963 12.493C13.9963 11.8909 13.5082 11.4028 12.906 11.4028C12.3039 11.4028 11.8157 11.8909 11.8157 12.493C11.8157 13.0952 12.3039 13.5833 12.906 13.5833Z" fill="#111111"/>
<path d="M9.09076 2.68055C9.6929 2.68055 10.181 2.19242 10.181 1.59027C10.181 0.988132 9.6929 0.5 9.09076 0.5C8.48862 0.5 8.00049 0.988132 8.00049 1.59027C8.00049 2.19242 8.48862 2.68055 9.09076 2.68055Z" fill="#111111"/>
</svg>
