<?xml version="1.0" encoding="UTF-8"?>
<svg width="131px" height="73px" viewBox="0 0 131 73" version="1.1" xmlns="http://www.w3.org/2000/svg" xmlns:xlink="http://www.w3.org/1999/xlink">
    <!-- Generator: sketchtool 52 (66869) - http://www.bohemiancoding.com/sketch -->
    <title>35C4FC40-672C-4AD5-87A2-8225D8F32634</title>
    <desc>Created with sketchtool.</desc>
    <g id="Sign-in" stroke="none" stroke-width="1" fill="none" fill-rule="evenodd">
        <g transform="translate(-216.000000, -289.000000)" fill="#161616" id="Havr_logo_full">
            <g transform="translate(216.000000, 289.000000)">
                <polygon id="_Compound_Path_" points="63 0 69.0620155 0 85.1395349 36.4277457 90.9379845 22.867052 97 22.867052 86.9844961 46 83.0310078 46"></polygon>
                <polygon id="_Compound_Path_2" points="74 73 67.8333333 73 49.3333333 32.5238095 43.1666667 46.015873 37 46.015873 47.1884058 23 51.2101449 23"></polygon>
                <polygon id="_Path_" points="125.4 30.6666667 131 30.6666667 127.533333 23 111 23 111 46 117.133333 46 117.133333 28.816092 124.6 28.816092"></polygon>
                <polygon id="_Compound_Path_3" points="18.7701149 31.0797872 16.9195402 31.3723404 16.9195402 21 23 21 23 46 16.9195402 46 16.9195402 36.4255319 6.08045977 36.4255319 6.08045977 46 0 46 0 21 6.08045977 21 6.08045977 31.3723404"></polygon>
            </g>
        </g>
    </g>
</svg>