<svg width="12" height="12" viewBox="0 0 12 12" fill="none" xmlns="http://www.w3.org/2000/svg">
<g clip-path="url(#clip0)">
<path fill-rule="evenodd" clip-rule="evenodd" d="M3.23083 6.07692C3.23083 5.56711 3.64411 5.15384 4.15391 5.15384H11.077C11.5868 5.15384 12.0001 5.56711 12.0001 6.07692C12.0001 6.58672 11.5868 6.99999 11.077 6.99999H4.15391C3.64411 6.99999 3.23083 6.58672 3.23083 6.07692Z" fill="#111111"/>
<path d="M1.03846 7.46154C1.61199 7.46154 2.07692 6.9966 2.07692 6.42307C2.07692 5.84955 1.61199 5.38461 1.03846 5.38461C0.464935 5.38461 0 5.84955 0 6.42307C0 6.9966 0.464935 7.46154 1.03846 7.46154Z" fill="#111111"/>
<path fill-rule="evenodd" clip-rule="evenodd" d="M3.23083 1.92308C3.23083 1.41328 3.64411 1 4.15391 1H11.077C11.5868 1 12.0001 1.41328 12.0001 1.92308C12.0001 2.43288 11.5868 2.84615 11.077 2.84615H4.15391C3.64411 2.84615 3.23083 2.43288 3.23083 1.92308Z" fill="#111111"/>
<path d="M1.03846 3.3077C1.61199 3.3077 2.07692 2.84276 2.07692 2.26924C2.07692 1.69571 1.61199 1.23077 1.03846 1.23077C0.464935 1.23077 0 1.69571 0 2.26924C0 2.84276 0.464935 3.3077 1.03846 3.3077Z" fill="#111111"/>
<path fill-rule="evenodd" clip-rule="evenodd" d="M3.23083 10.2308C3.23083 9.72095 3.64411 9.30768 4.15391 9.30768H11.077C11.5868 9.30768 12.0001 9.72095 12.0001 10.2308C12.0001 10.7406 11.5868 11.1538 11.077 11.1538H4.15391C3.64411 11.1538 3.23083 10.7406 3.23083 10.2308Z" fill="#111111"/>
<path d="M1.03846 10.9231C1.61199 10.9231 2.07692 10.4581 2.07692 9.88462C2.07692 9.3111 1.61199 8.84616 1.03846 8.84616C0.464935 8.84616 0 9.3111 0 9.88462C0 10.4581 0.464935 10.9231 1.03846 10.9231Z" fill="#111111"/>
</g>
<defs>
<clipPath id="clip0">
<rect width="12" height="12" fill="white"/>
</clipPath>
</defs>
</svg>
