<svg width="16" height="16" viewBox="0 0 16 16" fill="none" xmlns="http://www.w3.org/2000/svg">
<path d="M12.7556 7.08335H11.7778V4.33335C11.7778 2.30844 10.0266 0.666687 7.86667 0.666687C5.70676 0.666687 3.95556 2.30844 3.95556 4.33335V7.08335H2.97778C2.43756 7.08335 2 7.49356 2 8.00002V14.4167C2 14.9231 2.43756 15.3334 2.97778 15.3334H12.7556C13.2958 15.3334 13.7333 14.9231 13.7333 14.4167V8.00002C13.7333 7.49356 13.2958 7.08335 12.7556 7.08335ZM6.03333 4.62669C6.03333 3.65473 6.85421 2.86669 7.86667 2.86669C8.87913 2.86669 9.7 3.65473 9.7 4.62669V7.26669H6.03333V4.62669Z" fill="#111111"/>
</svg>
