<svg width="12" height="12" viewBox="0 0 12 12" fill="none" xmlns="http://www.w3.org/2000/svg">
<path fill-rule="evenodd" clip-rule="evenodd" d="M10.6666 10.9001V7.273L11.6363 6.49967V11.4902C11.6363 11.8213 11.325 12.0647 11.0041 11.9843L7.53354 11.1164C7.36821 11.0752 7.19512 11.0781 7.03173 11.1246L4.05138 11.976C3.93841 12.008 3.81913 12.008 3.70617 11.976L0.703027 11.1178C0.287029 10.999 0 10.6184 0 10.1855V1.85629C0 1.51787 0.323877 1.27399 0.649209 1.3666L3.63732 2.2209C3.8012 2.26744 3.97429 2.27035 4.13913 2.22914L4.52119 2.13363C4.43053 2.46575 4.37768 2.8129 4.36895 3.1712L4.36362 3.17265V10.8788L6.78785 10.186V7.273L7.75754 8.63687V10.1729L10.6666 10.9001ZM0.96962 10.186L3.39385 10.8783V3.15956L0.96962 2.4672V10.186Z" fill="#111111"/>
<path fill-rule="evenodd" clip-rule="evenodd" d="M4.71362 3.39392C4.71362 1.51951 6.23313 0 8.10755 0C9.98196 0 11.5015 1.51951 11.5015 3.39392C11.5015 5.29154 9.90689 6.32616 9.25904 6.74651C9.1448 6.82063 9.06 6.87565 9.01857 6.91294C8.73591 7.167 8.5027 7.67706 8.40864 7.99948C8.36306 8.15609 8.23506 8.2356 8.10755 8.23899C7.98052 8.2356 7.85203 8.15609 7.80646 7.99948C7.71191 7.67657 7.4787 7.167 7.19652 6.91294C7.15509 6.87565 7.07029 6.82063 6.95605 6.74651C6.3082 6.32616 4.71362 5.29154 4.71362 3.39392ZM7.13776 3.39392C7.13776 3.92968 7.57169 4.36361 8.10745 4.36361C8.6432 4.36361 9.07714 3.92968 9.07714 3.39392C9.07714 2.85817 8.6432 2.42423 8.10745 2.42423C7.57169 2.42423 7.13776 2.85817 7.13776 3.39392Z" fill="#111111"/>
</svg>
