<?xml version="1.0" encoding="UTF-8"?>
<svg width="18px" height="18px" viewBox="0 0 18 18" version="1.1" xmlns="http://www.w3.org/2000/svg" xmlns:xlink="http://www.w3.org/1999/xlink">
    <!-- Generator: sketchtool 51 (57462) - http://www.bohemiancoding.com/sketch -->
    <title>05745739-8C18-45F6-B2DA-D91D22A73F18</title>
    <desc>Created with sketchtool.</desc>
    <defs></defs>
    <g id="Keychain" stroke="none" stroke-width="1" fill="none" fill-rule="evenodd">
        <g id="Keychain-/-List" transform="translate(-1479.000000, -168.000000)">
            <rect fill="#FFFFFF" x="0" y="0" width="1600" height="1000"></rect>
            <g id="Group-3" transform="translate(1384.000000, 166.000000)" fill="#D5D5D5" fill-rule="nonzero">
                <g id="map_marker" transform="translate(95.000000, 2.000000)">
                    <path d="M15.84,10.8004392 L15.84,16.1867592 L11.52,15.1067592 L11.52,12.8257992 L10.08,10.8004392 L10.08,15.1261992 L6.48,16.1550792 L6.48,4.71139924 L6.48792,4.70923924 C6.50088,4.17715924 6.57936,3.66163924 6.714,3.16843924 L6.14664,3.31027924 C5.90184,3.37147924 5.6448,3.36715924 5.40144,3.29803924 L0.96408,2.02939924 C0.48096,1.89187924 0,2.25403924 0,2.75659924 L0,15.1254792 C0,15.7684392 0.42624,16.3336392 1.044,16.5100392 L5.50368,17.7844392 C5.67144,17.8319592 5.84856,17.8319592 6.01632,17.7844392 L10.44216,16.5201192 C10.6848,16.4509992 10.94184,16.4466792 11.18736,16.5078792 L16.34112,17.7966792 C16.81776,17.9161992 17.28,17.5547592 17.28,17.0629992 L17.28,9.65203924 L15.84,10.8004392 Z M5.04,16.1543592 L1.44,15.1261992 L1.44,3.66379924 L5.04,4.69195924 L5.04,16.1543592 Z" id="Shape"></path>
                    <path d="M12.04,0 C9.25648,0 7,2.25648 7,5.04 C7,8.35488 10.27672,9.8964 10.68712,10.26576 C11.10616,10.64304 11.45248,11.39976 11.59288,11.87928 C11.66056,12.11184 11.85136,12.22992 12.04,12.23496 C12.22936,12.22992 12.41944,12.11184 12.48712,11.87928 C12.6268,11.40048 12.97312,10.64304 13.39288,10.26576 C13.80328,9.8964 17.08,8.35488 17.08,5.04 C17.08,2.25648 14.82352,0 12.04,0 Z M12.04,6.48 C11.2444,6.48 10.6,5.8356 10.6,5.04 C10.6,4.2444 11.2444,3.6 12.04,3.6 C12.8356,3.6 13.48,4.2444 13.48,5.04 C13.48,5.8356 12.8356,6.48 12.04,6.48 Z" id="Shape"></path>
                </g>
            </g>
        </g>
    </g>
</svg>