<svg width="12" height="12" viewBox="0 0 12 12" fill="none" xmlns="http://www.w3.org/2000/svg">
<path d="M0.25 12C0.388071 12 0.5 11.8881 0.5 11.75C0.5 11.6119 0.388071 11.5 0.25 11.5C0.111929 11.5 0 11.6119 0 11.75C0 11.8881 0.111929 12 0.25 12Z" fill="#111111"/>
<path d="M0.576497 10.0765L0.0189972 11.6545L0.335997 11.985L1.924 11.424L0.576497 10.0765Z" fill="#111111"/>
<path d="M11 3.5L11.707 2.793C12.0975 2.4025 12.0975 1.7695 11.707 1.379L10.621 0.292997C10.2305 -0.0975029 9.5975 -0.0975029 9.207 0.292997L8.5 0.999997L11 3.5Z" fill="#111111"/>
<path d="M7.5 2L1.5 8L2.25 8.25L2.5 9.5L3.75 9.75L4 10.5L10 4.5L7.5 2Z" fill="#111111"/>
</svg>
