<svg width="12" height="12" viewBox="0 0 12 12" fill="#939393" xmlns="http://www.w3.org/2000/svg">
<path d="M11.782 1.77027L10.2299 0.218241C10.119 0.107369 9.97594 0.0343016 9.82109 0.00943311C9.66624 -0.0154354 9.50748 0.0091621 9.36742 0.0797261C9.35533 0.0756352 9.34235 0.0750036 9.32992 0.0779026C9.3175 0.0808016 9.30613 0.0871157 9.29711 0.0961323L9.17523 0.218007L1.81573 7.57736L0.982047 8.41173C0.971973 8.42186 0.965332 8.43489 0.963063 8.449L0.953922 8.43986L0 12L3.56021 11.0461L3.55107 11.037C3.56518 11.0347 3.57821 11.028 3.58834 11.018L11.9041 2.70237C11.9131 2.69335 11.9194 2.68198 11.9223 2.66956C11.9252 2.65713 11.9246 2.64415 11.9205 2.63206C11.9909 2.49208 12.0154 2.33348 11.9906 2.17878C11.9657 2.02407 11.8927 1.88114 11.782 1.77027V1.77027Z" fill="#939393"/>
</svg>
