<svg width="38" height="38" viewBox="0 0 38 38" fill="none" xmlns="http://www.w3.org/2000/svg">
<path fill-rule="evenodd" clip-rule="evenodd" d="M15.9445 3.72219C9.19429 3.72219 3.72219 9.19429 3.72219 15.9445C3.72219 22.6946 9.19429 28.1667 15.9445 28.1667C22.6946 28.1667 28.1667 22.6946 28.1667 15.9445C28.1667 9.19429 22.6946 3.72219 15.9445 3.72219ZM0.666626 15.9445C0.666626 7.50675 7.50675 0.666626 15.9445 0.666626C24.3822 0.666626 31.2223 7.50675 31.2223 15.9445C31.2223 24.3822 24.3822 31.2223 15.9445 31.2223C7.50675 31.2223 0.666626 24.3822 0.666626 15.9445Z" fill="#939393" stroke="#939393" stroke-miterlimit="10"/>
<path fill-rule="evenodd" clip-rule="evenodd" d="M24.6982 24.6985C25.2948 24.1018 26.2622 24.1018 26.8588 24.6985L36.8857 34.7253C37.4823 35.3219 37.4823 36.2893 36.8857 36.8859C36.289 37.4826 35.3217 37.4826 34.7251 36.8859L24.6982 26.8591C24.1016 26.2624 24.1016 25.2951 24.6982 24.6985Z" fill="#939393" stroke="#939393" stroke-miterlimit="10" stroke-linecap="round"/>
</svg>
