<svg xmlns="http://www.w3.org/2000/svg" width="23" height="25" viewBox="0 0 23 25">
    <path fill="#D5D5D5" fill-rule="nonzero" d="M18.859 16.737a4.184 4.184 0 0 0-2.717 1.026l-7.939-4.526a3.5 3.5 0 0 0 0-1.474l7.94-4.526a4.184 4.184 0 0 0 2.716 1.026A4.127 4.127 0 0 0 23 4.132 4.127 4.127 0 0 0 18.859 0a4.127 4.127 0 0 0-4.141 4.132c0 .263.026.5.079.736l-7.94 4.527a4.184 4.184 0 0 0-2.716-1.027A4.127 4.127 0 0 0 0 12.5a4.127 4.127 0 0 0 4.141 4.132 4.184 4.184 0 0 0 2.717-1.027l7.939 4.527a3.5 3.5 0 0 0-.08.736A4.127 4.127 0 0 0 18.86 25 4.127 4.127 0 0 0 23 20.868a4.127 4.127 0 0 0-4.141-4.131z"/>
</svg>
