<?xml version="1.0" encoding="UTF-8"?>
<svg width="24px" height="24px" viewBox="0 0 24 24" version="1.1" xmlns="http://www.w3.org/2000/svg" xmlns:xlink="http://www.w3.org/1999/xlink">
    <!-- Generator: sketchtool 51 (57462) - http://www.bohemiancoding.com/sketch -->
    <title>4CF6AD64-E24D-46F6-B75F-C82115D17ECA</title>
    <desc>Created with sketchtool.</desc>
    <defs></defs>
    <g id="Symbols" stroke="none" stroke-width="1" fill="none" fill-rule="evenodd">
        <g id="icons-/-not-active-/-contacts" fill="#111111" fill-rule="nonzero">
            <path d="M12.5192,16.4352 C11.2728,15.9984 9.9816,15.9448 9.6,14.8 L9.6,13.2 C9.96,13.0216 10.9888,11.796 11.0976,10.8384 C11.1616,10.612 11.2112,9.8024 11.2112,9.62 C11.2112,8.6208 11.196,6.5552 11.8216,4.9384 C11.6032,3.852 11.0328,2.9368 9.8096,2.816 C9.4824,2.2744 8.644,2 7.5536,2 C3.1928,2.0752 2.7472,5.0984 3.6224,8.5712 C3.4528,8.6688 3.1728,8.9792 3.2432,9.5296 C3.3744,10.556 3.8192,10.816 4.1024,10.8376 C4.2104,11.796 5.24,13.0216 5.6,13.2 L5.6,14.8 C4.8,17.2 0,14.8 0,21.2 L9.6,21.2 C9.6,18.3616 11.192,17.1384 12.5192,16.4352 Z" id="Shape"></path>
            <path d="M11.2,21.2 C11.2,17.2 15.2,18 16,15.8344 L16,14.8144 C13.1032,14.8144 12.2992,13.6216 12.2992,13.6216 C13.8128,12.3624 10.9504,3.6 16.104,3.6 C16.104,3.6 16.8,2.8 17.6992,2.8 C24,2.8 21.1568,12.3144 22.7864,13.652 C22.7864,13.652 22.1112,14.804 19.2,14.804 L19.2,15.8344 C20,18 24,17.2 24,21.2 L11.2,21.2 Z" id="Shape"></path>
        </g>
    </g>
</svg>